# xmcd
# 
# Track frame offsets:
#     150
#     17359
#     31936
#     49595
#     64604
#     75636
#     86477
#     101047
#     116301
#     130724
#     145790
#     158130
#     172642
#     190150
#     209477
#     222337
#     246067
# 
# Disc length: 4440
# 
# Revision: 3
# Processed by: cddbd v1.5.2PL0 Copyright (c) Steve Scherf et al.
# Submitted via: fre:ac v1.0.17
# 
DISCID=d2115611
DTITLE=Various Artist - He Sings the Blues Disc 2
DYEAR=2005
DGENRE=Jazz
TTITLE0=Nat King Cole - The Very Thought Of You
TTITLE1=Sammy Davis Jr. - The Way You Look Tonight
TTITLE2=Billy Eckstine - Stormy Weather
TTITLE3=Chet Baker - I Fall In Love Too Easily
TTITLE4=Louis Prima - I Got The World On A String
TTITLE5=Dean Martin - I Wish You Love
TTITLE6=Louis Armstrong - We Have All The Time In The World
TTITLE7=Matt Monro - Softly As I Leave You
TTITLE8=Mel Torme - Blue Moon
TTITLE9=Lou Rawls - Georgia On My Mind
TTITLE10=Glen Campbell - By The Time I Get To Phoenix
TTITLE11=Dr. Hook - If Not You
TTITLE12=Kenny Rogers - Lady
TTITLE13=Don McLean - And I Love You
TTITLE14=Willie Nelson - Crazy
TTITLE15=Nat King Cole - The Party's Over
TTITLE16=Unknown - Data
EXTD=YEAR: 2005 ID3G: 0
EXTT0=
EXTT1=
EXTT2=
EXTT3=
EXTT4=
EXTT5=
EXTT6=
EXTT7=
EXTT8=
EXTT9=
EXTT10=
EXTT11=
EXTT12=
EXTT13=
EXTT14=
EXTT15=
EXTT16=
PLAYORDER=
